<svg width="177" height="194" viewBox="0 0 177 194" fill="none" xmlns="http://www.w3.org/2000/svg">
<path opacity="0.1" d="M129.752 86.1195C129.642 82.4563 129.435 78.5499 129.091 74.5073C128.63 66.4319 127.748 58.8915 126.151 54.1484C117.357 52.0809 71.6673 55.9338 71.6334 55.9338L71.3495 54.4743L71.2351 53.8954L71.0318 52.8787L70.9767 52.6452C70.6802 51.2733 70.3455 49.9161 69.9558 48.5685C69.9558 48.5685 35.3191 45.0173 23.8301 48.4615C23.8301 48.5783 23.8301 48.6902 23.8301 48.8069L23.864 52.0614C23.8979 58.3613 23.7708 64.2719 24.0546 70.7615V70.8101C23.9997 70.8044 23.9444 70.8044 23.8894 70.8101C23.4436 70.8778 23.0227 71.0859 22.6735 71.4113C22.3243 71.7367 22.0604 72.1668 21.911 72.6539C21.797 73.0316 21.7551 73.4331 21.7882 73.8311L21.9407 75.8792C21.9407 75.9132 21.9407 75.9424 21.9407 75.9765C22.3643 81.1428 22.7879 86.2605 22.7879 86.2605C22.7879 86.2605 23.0082 86.2849 23.3683 86.3043L25.2705 86.46C21.2205 86.8881 16.7977 93.0274 16.9926 98.3056C17.1874 103.584 12.7562 113.523 13.8619 119.224C14.7092 123.68 19.0684 130.846 21.1908 136.29L21.0256 137.369L11.5488 159.222C12.1843 158.152 17.9034 186.708 44.4655 180.661L63.364 145.304C65.4718 143.478 67.4008 141.395 69.117 139.092C69.8413 138.265 70.4437 137.309 70.9005 136.26C71.5753 135.022 72.0904 133.679 72.4298 132.271C72.5145 131.902 72.6035 131.537 72.6967 131.162C74.2387 126.652 76.2976 120.499 77.8058 116.237C97.7167 115.556 118.623 114.16 129.121 111.324H129.142C130.159 103.394 130.18 94.4966 129.752 86.1195ZM27.4988 106.099C27.3344 104.782 27.2354 103.455 27.2022 102.124C27.4352 103.526 27.6894 104.922 27.9563 106.323C27.8038 106.245 27.6513 106.167 27.4988 106.099Z" fill="black"/>
<path d="M9.38281 157.826C9.38281 157.826 17.8895 186.708 44.4643 180.661C44.4643 180.661 50.3613 148.87 55.3009 144.175C58.4867 141.159 65.5233 135.749 67.0272 131.833C68.5311 127.917 74.5722 109.319 75.7414 107.082C76.9107 104.844 63.0662 79.0947 63.0662 79.0947L33.903 96.3743L17.6776 129.455C17.6776 129.455 14.5639 150.859 9.38281 157.826Z" fill="white"/>
<path d="M17.3952 132.032C17.3952 132.032 15.3151 149.891 8.43945 159.221" stroke="#263238" stroke-width="0.652167" stroke-linecap="round" stroke-linejoin="round"/>
<path d="M44.4629 180.66C44.4629 180.66 50.326 149.9 55.2995 144.174C55.2995 144.174 66.5344 136.673 68.5594 127.844C69.9616 121.729 72.5119 114.68 73.732 111.479" stroke="#263238" stroke-width="0.652167" stroke-linecap="round" stroke-linejoin="round"/>
<path d="M46.8304 112.467C46.4068 112.155 53.6298 118.791 53.9094 127.859" stroke="#263238" stroke-width="0.652167" stroke-linecap="round" stroke-linejoin="round"/>
<path d="M125.274 106.906C101.856 113.23 26.4311 112.398 26.4311 112.398C25.7956 110.861 25.0288 106.988 24.2875 102.503C22.8047 93.4984 21.4194 82.0225 21.4194 82.0225L18.9242 81.8231C18.9242 81.8231 18.5006 76.7054 18.0769 71.539C17.6533 66.3727 20.1951 66.3775 20.1951 66.3775L20.0129 48.4947L19.9663 44.0289C31.4554 40.5847 66.092 44.1359 66.092 44.1359L67.1723 48.4461L67.7739 51.5011L122.288 49.7352C127.287 64.5776 125.274 106.906 125.274 106.906Z" fill="#E39306"/>
<path d="M116.219 63.5246L80.4635 65.5775C78.9918 65.662 77.8585 67.1004 77.9321 68.7904L78.2953 77.1334C78.3689 78.8234 79.6216 80.1248 81.0932 80.0403L116.848 77.9874C118.32 77.9029 119.453 76.4645 119.38 74.7745L119.016 66.4315C118.943 64.7415 117.69 63.4401 116.219 63.5246Z" fill="#263238"/>
<path d="M119.182 83.4385L119.297 84.8249L78.1276 86.6541L78.0938 85.4087L119.182 83.4385Z" fill="#263238"/>
<path d="M119.386 88.2588L119.424 89.5042L78.2588 91.2506L78.2207 90.0101L119.386 88.2588Z" fill="#263238"/>
<path opacity="0.3" d="M122.28 49.7351C122.28 49.7351 128.355 82.8153 125.275 106.906C125.275 106.906 86.8593 112.082 73.7054 111.245L73.1673 103.194L74.2688 102.999C74.2688 102.999 68.9649 57.0468 67.7617 51.501C67.7617 51.501 113.51 47.6627 122.28 49.7351Z" fill="black"/>
<path opacity="0.8" d="M71.9 103.077L72.3533 109.163C72.3533 109.163 33.6328 111.109 30.2267 109.693C26.8207 108.278 30.4089 106.02 39.4154 105.208C48.422 104.395 71.9 103.077 71.9 103.077Z" fill="white"/>
<path d="M48.7815 77.2647C50.7352 77.2647 52.3189 75.6181 52.3189 73.5869C52.3189 71.5558 50.7352 69.9092 48.7815 69.9092C46.8279 69.9092 45.2441 71.5558 45.2441 73.5869C45.2441 75.6181 46.8279 77.2647 48.7815 77.2647Z" fill="#263238"/>
<path d="M21.4199 82.0177C22.218 92.3084 23.8952 102.484 26.4273 112.398C42.8518 112.237 59.272 112.028 75.6922 111.425C92.1124 110.822 108.986 109.547 125.258 106.906C125.258 106.906 128.172 77.3475 122.263 49.7353C115.73 48.1737 67.9269 51.4915 67.9269 51.4915" stroke="#263238" stroke-width="0.652167" stroke-linecap="round" stroke-linejoin="round"/>
<path d="M71.8993 103.078L72.3526 109.164L35.4961 110.136C33.9752 110.287 31.6071 110.516 30.2091 109.694C29.5736 109.319 29.1161 108.405 29.4169 107.655C29.688 106.984 30.3997 106.746 31.0352 106.6C35.5427 105.534 40.1434 105.087 44.7314 104.698C54.5541 103.861 64.3924 103.295 74.2462 103C74.0387 103 71.6366 80.2378 71.3697 78.1362C70.3276 69.9148 69.3363 61.6593 68.0484 53.4817C67.5836 50.3156 66.9196 47.1924 66.0616 44.1365C50.8784 42.8912 35.0216 41.7382 19.9316 44.0295C20.0714 51.7498 19.8215 58.6237 20.1646 66.3781" stroke="#263238" stroke-width="0.652167" stroke-linecap="round" stroke-linejoin="round"/>
<path d="M25.8622 110.107C25.7715 109.792 25.7173 109.465 25.7012 109.134" stroke="#263238" stroke-width="0.652167" stroke-linecap="round" stroke-linejoin="round"/>
<path d="M25.9473 107.29C26.5107 105.67 28.201 103.84 32.7975 103.257C41.1813 102.186 59.457 100.26 70.1793 99.793" stroke="#263238" stroke-width="0.652167" stroke-linecap="round" stroke-linejoin="round" stroke-dasharray="2.55 2.55"/>
<path d="M71.0098 99.7599L71.857 99.7259L71.7427 98.7529" stroke="#263238" stroke-width="0.652167" stroke-linecap="round" stroke-linejoin="round"/>
<path d="M71.5051 96.8897C69.5776 80.9674 67.4424 65.1619 64.998 49.3271" stroke="#263238" stroke-width="0.652167" stroke-linecap="round" stroke-linejoin="round" stroke-dasharray="2.53 2.53"/>
<path d="M64.8611 48.3975L64.7086 47.4246L63.8613 47.3564" stroke="#263238" stroke-width="0.652167" stroke-linecap="round" stroke-linejoin="round"/>
<path d="M62.1517 47.2304C55.1066 46.6904 35.0728 45.3429 21.707 46.3937" stroke="#263238" stroke-width="0.652167" stroke-linecap="round" stroke-linejoin="round" stroke-dasharray="2.65 2.65"/>
<path d="M20.8434 46.4658L19.9961 46.5437" stroke="#263238" stroke-width="0.652167" stroke-linecap="round" stroke-linejoin="round"/>
<path d="M18.9237 81.8227L17.9112 69.4176C17.8805 69.0451 17.9155 68.6692 18.0142 68.3126C18.1129 67.9559 18.2732 67.6258 18.4856 67.3419C18.698 67.0581 18.9581 66.8263 19.2503 66.6606C19.5424 66.4948 19.8607 66.3984 20.1861 66.3772C26.4136 65.9637 42.5203 64.9907 48.7012 65.5599C51.6666 65.8323 54.8905 66.9269 56.3267 70.1863C57.5213 72.8716 57.6992 76.8996 55.6954 79.1082C52.6452 82.4649 46.8583 82.207 42.927 82.3676C35.6065 82.6887 18.9279 81.8957 18.9237 81.8227Z" stroke="#263238" stroke-width="0.652167" stroke-linecap="round" stroke-linejoin="round"/>
<path d="M57.2216 74.2381C57.2216 73.8928 58.7636 81.365 53.1292 83.8314C47.4948 86.2978 21.4199 85.5195 21.4199 85.5195V82.0169C21.4199 82.0169 39.8651 82.4644 42.9365 82.3671C46.0079 82.2698 56.8911 83.4422 57.2216 74.2381Z" fill="#263238"/>
<path d="M51.8027 115.978C51.8027 115.978 56.4119 119.076 58.1361 124.899" stroke="#263238" stroke-width="0.652167" stroke-linecap="round" stroke-linejoin="round"/>
<path d="M18.0391 68.2403C18.0391 68.2403 40.6444 67.0193 46.3974 67.2382C52.1504 67.4571 54.9676 68.9117 55.5395 73.0515C56.1114 77.1914 52.6248 79.7698 49.8458 80.2562C47.0667 80.7427 18.9202 80.8838 18.9202 80.8838" stroke="#263238" stroke-width="0.652167" stroke-linecap="round" stroke-linejoin="round" stroke-dasharray="2.61 2.61"/>
<path d="M33.5749 118.391C33.5749 118.391 30.0757 104.434 23.6364 101.686C23.6364 101.686 22.3654 92.1605 25.1106 91.6351C27.8558 91.1097 35.6084 85.2428 33.5834 77.9214C31.5584 70.5999 25.4792 81.5943 21.4292 82.0175C17.3792 82.4407 12.9565 88.5849 13.1386 93.868C13.3208 99.1511 8.90224 109.09 10.0079 114.786C11.1136 120.483 17.93 130.645 18.4807 135.933" fill="white"/>
<path d="M33.5749 118.391C33.5749 118.391 30.0757 104.434 23.6364 101.686C23.6364 101.686 22.3654 92.1605 25.1106 91.6351C27.8558 91.1097 35.6084 85.2428 33.5834 77.9214C31.5584 70.5999 25.4792 81.5943 21.4292 82.0175C17.3792 82.4407 12.9565 88.5849 13.1386 93.868C13.3208 99.1511 8.90224 109.09 10.0079 114.786C11.1136 120.483 17.93 130.645 18.4807 135.933" stroke="#263238" stroke-width="0.652167" stroke-linecap="round" stroke-linejoin="round"/>
<path d="M25.0938 79.8722C25.0938 79.8722 29.9444 80.884 32.5794 77.3474C35.2145 73.8107 32.1812 73.5869 32.1812 73.5869L25.0938 79.8722Z" fill="white" stroke="#263238" stroke-width="0.652167" stroke-linecap="round" stroke-linejoin="round"/>
<path d="M16.4336 87.7529C17.3191 87.8228 18.1753 88.1455 18.9246 88.6918" stroke="#263238" stroke-width="0.652167" stroke-linecap="round" stroke-linejoin="round"/>
<path d="M16.2832 89.7773C17.1652 89.8734 18.0054 90.2546 18.7064 90.8768" stroke="#263238" stroke-width="0.652167" stroke-linecap="round" stroke-linejoin="round"/>
<path d="M29.3789 108.473C29.3789 108.473 50.1372 107.242 55.6021 107.602" stroke="#263238" stroke-width="0.652167" stroke-linecap="round" stroke-linejoin="round"/>
<path d="M50.5508 105.782C50.5508 105.782 55.7742 105.295 59.0235 105.782" stroke="#263238" stroke-width="0.652167" stroke-linecap="round" stroke-linejoin="round"/>
<path d="M63.7832 107.533H72.2348" stroke="#263238" stroke-width="0.652167" stroke-linecap="round" stroke-linejoin="round"/>
<path d="M68.8984 54.2252C68.8984 54.2252 106.022 50.4161 120.938 52.5906C120.938 52.5906 124.963 61.0893 124.086 104.643C107.321 107.111 90.4528 108.551 73.5542 108.958" stroke="#263238" stroke-width="0.652167" stroke-linecap="round" stroke-linejoin="round" stroke-dasharray="2.61 2.61"/>
<g opacity="0.1">
<path d="M169.394 114.5C168.339 109.348 166.793 107.412 165.242 105.923C165.242 105.923 165.208 103.004 163.221 101.341C162.691 100.804 162.124 100.316 161.527 99.8811C159.663 98.2757 157.608 96.4758 157.608 96.4758C156.642 93.2651 155.333 89.3781 153.918 85.5544L153.99 86.4252C152.541 82.3632 151.122 78.3206 150.724 76.9779V76.9487C151.148 78.2427 151.571 79.493 152.037 80.6459L146.733 59.1194C146.606 58.2535 146.475 57.4022 146.344 56.58C146.089 54.1477 145.399 49.5651 143.734 49.2392C143.672 49.2344 143.61 49.2344 143.548 49.2392C143.548 49.2392 141.586 48.2662 141.586 52.2602C139.252 53.1553 138.35 55.179 138.125 57.5579C138.004 58.3124 137.989 59.0845 138.083 59.8443C138.125 60.7248 138.214 61.6248 138.333 62.5199L130.817 51.1753L130.093 50.0953L120.824 36.0849L108.364 17.2097C107.901 16.509 107.322 15.9201 106.66 15.4766C105.998 15.0331 105.266 14.7436 104.507 14.6248C103.748 14.506 102.976 14.5601 102.235 14.7841C101.494 15.0081 100.798 15.3976 100.188 15.9303L84.7212 29.4202L78.6844 34.6839C74.054 37.4519 75.2614 42.9199 76.545 44.8609L103.518 85.6323C103.378 85.6119 103.236 85.6038 103.094 85.6079C103.094 85.6079 102.323 83.521 100.417 83.8518C100.011 83.8733 99.6182 84.0231 99.2817 84.2847C98.9741 84.4705 98.7131 84.7435 98.5233 85.0777C98.3121 85.3706 98.1222 85.683 97.9557 86.0117C96.9855 87.9187 97.8837 92.584 99.2859 98.2806C99.3749 98.6503 99.4638 99.0054 99.5485 99.3363V99.3898L99.9086 100.815C101.281 106.283 103.848 117.02 104.323 122.283C104.357 122.77 104.378 123.29 104.386 123.777C104.416 129.838 102.073 139.986 103.082 144.179C103.213 144.729 103.349 145.255 103.484 145.775C104.234 148.577 104.903 151.228 106.081 153.86C107.513 157.071 109.22 160.15 110.817 163.259C113.749 168.97 116.782 174.613 119.917 180.188C121.362 182.747 123.052 185.082 124.687 187.485C125.437 188.59 127.072 190.249 127.356 191.664C127.356 191.664 141.857 193.041 149.974 187.12L149.212 173.869L154.655 137.943C156.21 135.233 161.01 129.94 161.967 128.267C162.463 127.435 162.946 126.608 163.416 125.8C166.996 121.962 168.788 118.99 169.576 115.531C169.593 115.541 169.538 115.147 169.394 114.5ZM119.193 122.346L119.121 122.191C120.602 122.961 122.171 123.485 123.781 123.748C122.09 123.524 120.18 123.212 119.193 122.346ZM125.31 123.957L126.089 124.02C125.829 124.019 125.568 123.998 125.31 123.957ZM119.04 121.982L118.066 119.763C116.71 115.297 113.647 104.77 113.635 104.726C113.035 101.693 112.233 98.7166 111.237 95.8239C111.957 96.1157 112.73 96.1973 113.485 96.0614C114.24 95.9256 114.954 95.5765 115.562 95.0455L122.976 88.5803C123.742 89.1106 124.526 89.5873 125.293 90.0057L132.236 96.2374L126.729 122.23L119.04 121.982ZM147.144 62.1161C147.72 65.2198 148.631 69.6857 149.839 74.0104C148.667 70.1335 147.763 66.1564 147.136 62.1161H147.144Z" fill="black"/>
<path d="M115.672 187.013L115.714 187.246C115.714 187.246 115.702 187.159 115.672 187.013Z" fill="black"/>
</g>
<path d="M141.408 63.0687C141.832 62.7476 148.042 58.8656 151.152 70.5069C154.261 82.1482 157.909 101.957 157.909 101.957L150.521 103.607C150.521 103.607 143.675 99.4229 137.54 88.9443C137.54 88.9443 128.941 86.3854 125.196 80.3045C121.806 74.7781 132.262 54.4873 132.262 54.4873L141.408 63.0687Z" fill="white"/>
<path d="M138.754 77.5566C140.584 80.709 144.049 87.3396 148.726 89.4315" stroke="#263238" stroke-width="0.652167" stroke-linecap="round" stroke-linejoin="round"/>
<path d="M133.574 80.9473C134.421 81.3413 136.54 82.7424 137.539 82.7959C137.539 82.7959 141.856 92.608 148.978 95.7945" stroke="#263238" stroke-width="0.652167" stroke-linecap="round" stroke-linejoin="round"/>
<path d="M129.613 84.5615C132.261 87.1058 135.417 88.8425 137.54 88.9398C137.54 88.9398 141.856 98.752 148.978 101.938" stroke="#263238" stroke-width="0.652167" stroke-linecap="round" stroke-linejoin="round"/>
<path d="M107.33 13.459L83.9046 33.8922C81.87 35.6668 81.4735 38.9994 83.0189 41.3357L115.555 90.5225C117.1 92.8588 120.002 93.3141 122.037 91.5394L145.463 71.1062C147.497 69.3316 147.894 65.999 146.348 63.6627L113.812 14.476C112.267 12.1397 109.365 11.6843 107.33 13.459Z" fill="#263238"/>
<path d="M144.796 70.0405L123.301 88.7941C122.691 89.3278 121.995 89.7179 121.254 89.9423C120.513 90.1666 119.74 90.2206 118.98 90.1013C118.221 89.982 117.489 89.6917 116.827 89.247C116.166 88.8022 115.587 88.2119 115.125 87.5098L84.0507 40.5359C83.5444 39.7771 83.1887 38.9005 83.0085 37.9673C82.7581 36.7142 82.8283 35.4047 83.2109 34.1963C83.5935 32.988 84.272 31.9324 85.1648 31.1567L91.2059 25.893L106.669 12.3982C107.279 11.8658 107.974 11.4767 108.716 11.2531C109.457 11.0294 110.229 10.9757 110.989 11.095C111.748 11.2143 112.479 11.5042 113.141 11.9482C113.803 12.3921 114.382 12.9815 114.845 13.6825L127.313 32.5285L136.582 46.539L145.902 60.6467C146.367 61.3467 146.707 62.145 146.903 62.9961C147.099 63.8472 147.147 64.7344 147.045 65.6068C146.942 66.4793 146.69 67.3199 146.305 68.0807C145.919 68.8414 145.406 69.5074 144.796 70.0405Z" fill="#E39306"/>
<path opacity="0.1" d="M127.298 32.5285L91.1953 25.8882L106.671 12.3982C107.281 11.8658 107.977 11.4767 108.718 11.2531C109.459 11.0294 110.231 10.9757 110.991 11.095C111.75 11.2143 112.481 11.5042 113.143 11.9482C113.805 12.3921 114.384 12.9815 114.847 13.6825L127.298 32.5285Z" fill="black"/>
<path opacity="0.1" d="M144.799 70.041L123.304 88.7946C122.694 89.3282 121.999 89.7184 121.257 89.9427C120.516 90.1671 119.743 90.2211 118.984 90.1018C118.224 89.9825 117.492 89.6921 116.831 89.2474C116.169 88.8027 115.59 88.2124 115.128 87.5103L84.0539 40.5364C83.5476 39.7776 83.1919 38.901 83.0117 37.9678L137.297 47.6632L145.905 60.6764C146.836 62.0881 147.242 63.8658 147.035 65.6207C146.828 67.3756 146.024 68.9649 144.799 70.041Z" fill="black"/>
<path d="M109.722 17.1678L105.927 20.4781C105.167 21.1412 105.019 22.3863 105.596 23.2593L110.191 30.2051C110.768 31.078 111.853 31.2482 112.613 30.5851L116.408 27.2747C117.168 26.6117 117.316 25.3665 116.739 24.4936L112.144 17.5477C111.567 16.6748 110.483 16.5047 109.722 17.1678Z" fill="white" stroke="#263238" stroke-width="0.652167" stroke-linecap="round" stroke-linejoin="round"/>
<path d="M107.904 18.7461L114.458 28.9718" stroke="#263238" stroke-width="0.652167" stroke-linecap="round" stroke-linejoin="round"/>
<path d="M107.904 26.7483L114.458 21.042" stroke="#263238" stroke-width="0.652167" stroke-linecap="round" stroke-linejoin="round"/>
<path d="M120.594 85.7338L119.475 86.6776L105.83 66.0511L106.94 65.0879L120.594 85.7338Z" fill="#263238"/>
<path d="M122.49 84.1244L121.371 85.0779L107.709 64.4173L108.81 63.4541L122.49 84.1244Z" fill="#263238"/>
<path d="M124.378 82.5237L123.264 83.4674L109.58 62.7874L110.686 61.8193L124.378 82.5237Z" fill="#263238"/>
<path d="M126.27 80.9134L125.152 81.8571L111.65 61.4495L112.752 60.4814L126.27 80.9134Z" fill="#263238"/>
<path d="M128.315 79.1808L127.196 80.1295L113.674 59.6878L114.78 58.7197L128.315 79.1808Z" fill="#263238"/>
<path d="M128.315 55.13L127.196 56.0738L113.674 35.6322L114.78 34.6689L128.315 55.13Z" fill="#263238"/>
<path d="M98.8634 19.261L97.1328 20.7705L135.237 78.3752L136.968 76.8656L98.8634 19.261Z" fill="#263238"/>
<path d="M144.796 70.0405L123.301 88.7941C122.691 89.3278 121.995 89.7179 121.254 89.9423C120.513 90.1666 119.74 90.2206 118.98 90.1013C118.221 89.982 117.489 89.6917 116.827 89.247C116.166 88.8022 115.587 88.2119 115.125 87.5098L84.0507 40.5359C83.5444 39.7771 83.1887 38.9005 83.0085 37.9673C82.7581 36.7142 82.8283 35.4047 83.2109 34.1963C83.5935 32.988 84.272 31.9324 85.1648 31.1567L91.2059 25.893L106.669 12.3982C107.279 11.8658 107.974 11.4767 108.716 11.2531C109.457 11.0294 110.229 10.9757 110.989 11.095C111.748 11.2143 112.479 11.5042 113.141 11.9482C113.803 12.3921 114.382 12.9815 114.845 13.6825L127.313 32.5285L136.582 46.539L145.902 60.6467C146.367 61.3467 146.707 62.145 146.903 62.9961C147.099 63.8472 147.147 64.7344 147.045 65.6068C146.942 66.4793 146.69 67.3199 146.305 68.0807C145.919 68.8414 145.406 69.5074 144.796 70.0405Z" stroke="#263238" stroke-width="0.652167" stroke-linecap="round" stroke-linejoin="round"/>
<path d="M127.374 191.659C127.374 191.659 152.394 201.875 159.965 179.623C159.965 179.623 148.124 163.083 154.589 149.569C158.656 141.056 169.903 122.263 169.903 122.263C169.903 122.263 174.601 117.141 176.063 111.994C176.063 111.994 175.258 106.258 171.716 102.376C171.716 102.376 171.678 99.4574 169.691 97.7937C167.704 96.1299 164.061 92.9289 164.061 92.9289C164.061 92.9289 158.071 76.4277 157.181 73.4456C156.292 70.4635 154.504 64.8253 153.61 58.5984C152.716 52.3716 151.89 45.668 149.992 45.6874C149.992 45.6874 148.035 44.7145 148.035 48.7084C148.035 48.7084 143.926 51.1408 144.531 56.2877C145.137 61.4346 145.696 64.0956 145.536 66.9901C145.375 69.8846 146.184 79.9352 148.209 83.0876C148.209 83.0876 148.886 97.1953 149.903 100.868C149.937 100.98 149.967 101.082 149.996 101.175C151.064 104.283 140.397 116.255 134.623 119.495C134.623 119.495 134.017 120.789 131.776 120.434C129.535 120.079 125.743 119.914 125.091 118.002C124.438 116.09 120.096 101.175 120.096 101.175C120.096 101.175 116.584 82.0562 109.569 82.0611C109.569 82.0611 108.505 79.1422 105.756 80.7379C103.007 82.3335 104.807 91.0317 106.023 95.7894C107.239 100.547 110.319 113.054 110.818 118.809C111.318 124.564 108.48 136.094 109.547 140.628C110.615 145.162 111.801 148.222 115.207 155.645C118.613 163.069 126.158 185.203 127.374 191.659Z" fill="white"/>
<path d="M127.372 191.66C127.372 191.66 122.018 168.513 114.146 153.544C106.275 138.576 110.906 133.283 110.906 120.824C110.906 108.366 102.064 87.1553 104.449 82.4802C106.834 77.8052 110.088 81.5462 111.448 85.9099C112.808 90.2735 110.906 92.7692 107.093 93.0805" stroke="#263238" stroke-width="0.652167" stroke-linecap="round" stroke-linejoin="round"/>
<path d="M109.568 82.0807C109.568 82.0807 114.139 81.7596 116.948 90.1513C119.757 98.543 124.256 119.826 128.941 126.301" stroke="#263238" stroke-width="0.652167" stroke-linecap="round" stroke-linejoin="round"/>
<path d="M125.24 118.44C125.266 118.509 131.785 122.682 141.902 119.024" stroke="#263238" stroke-width="0.652167" stroke-linecap="round" stroke-linejoin="round"/>
<path d="M110.434 106.711C110.942 105.997 111.605 105.449 112.356 105.122C113.107 104.795 113.919 104.7 114.712 104.848" stroke="#263238" stroke-width="0.652167" stroke-linecap="round" stroke-linejoin="round"/>
<path d="M111.305 109.352C111.744 108.749 112.322 108.3 112.973 108.056C113.624 107.813 114.322 107.785 114.986 107.975" stroke="#263238" stroke-width="0.652167" stroke-linecap="round" stroke-linejoin="round"/>
<path d="M148.034 48.6943C141.383 51.2386 146.339 62.7729 145.534 66.9809C144.729 71.1889 146.805 79.2449 148.402 83.6134C148.402 88.736 149.991 101.165 149.991 101.165C149.008 105.12 140.807 116.776 132.838 120.425" stroke="#263238" stroke-width="0.652167" stroke-linecap="round" stroke-linejoin="round"/>
<path d="M152.914 54.5024C152.914 54.5024 152.418 45.6729 149.99 45.6729C147.563 45.6729 147.711 51.6224 148.72 56.0396C149.728 60.4568 153.651 59.8244 152.914 54.5024Z" stroke="#263238" stroke-width="0.652167" stroke-linecap="round" stroke-linejoin="round"/>
<path d="M152.916 54.502C152.916 54.502 154.983 68.3811 158.487 77.0987" stroke="#263238" stroke-width="0.652167" stroke-linecap="round" stroke-linejoin="round"/>
<path d="M162.616 109.605C164.311 106.453 165.06 103.471 165.687 99.6766C165.531 97.2977 163.146 89.5336 160.375 82.0127" stroke="#263238" stroke-width="0.652167" stroke-linecap="round" stroke-linejoin="round"/>
<path d="M164.287 93.6631C167.037 96.0371 171.819 97.8614 171.269 101.957C170.661 106.055 169.412 109.993 167.583 113.579" stroke="#263238" stroke-width="0.652167" stroke-linecap="round" stroke-linejoin="round"/>
<path d="M160.574 180.66C160.574 180.66 150.995 165.389 152.914 154.843C154.325 147.083 163.395 133.516 169.902 122.278C173.486 118.44 175.278 115.467 176.062 112.009C174.914 105.514 173.05 103.622 171.258 101.958" stroke="#263238" stroke-width="0.652167" stroke-linecap="round" stroke-linejoin="round"/>
<path d="M163.128 96.1829C162.061 95.8384 160.944 95.7492 159.846 95.9208C158.748 96.0923 157.692 96.521 156.744 97.1801" stroke="#263238" stroke-width="0.652167" stroke-linecap="round" stroke-linejoin="round"/>
<path d="M162.592 98.7959C161.291 98.5697 159.961 98.8379 158.805 99.5597" stroke="#263238" stroke-width="0.652167" stroke-linecap="round" stroke-linejoin="round"/>
</svg>
